<?xml version="1.0" encoding="utf-8"?>
<!-- Generator: Adobe Illustrator 25.2.3, SVG Export Plug-In . SVG Version: 6.00 Build 0)  -->
<svg version="1.1" id="Layer_1" xmlns="http://www.w3.org/2000/svg" xmlns:xlink="http://www.w3.org/1999/xlink" x="0px" y="0px"
	 width="220px" height="60px" viewBox="0 0 220 60" style="enable-background:new 0 0 220 60;" xml:space="preserve">
<style type="text/css">
	.st0{fill:none;}
	.st1{fill:#FFFFFF;}
	.st2{fill:#69BE5A;}
	.st3{fill:#252525;}
</style>
<rect class="st0" width="220" height="60"/>
<g>
	<g>
		<g>
			<path d="M211.5,47.5l-1.1-30.4l-0.8-0.1l-0.1-1.4c0-0.3-0.2-0.5-0.5-0.5l-13.6-1.5c-0.2,0-0.3,0-0.5,0.2
				c-0.1,0.1-0.2,0.3-0.2,0.5l0.4,2.8l-1.3-1.8c-0.1-0.1-0.3-0.2-0.4-0.2l-7.2-0.3c0,0,0,0-0.1,0l0,0l-2.3-0.1c-0.1,0-0.3,0-0.4,0.1
				l-10.2,0.2c-0.3,0-0.5,0.2-0.5,0.5l-0.1,5.2c-2.9-4.1-7.4-6.5-12.4-6.5c-4.3,0-8.3,1.9-11.2,5.2L149,17l-0.7-0.1l-0.1-1.4
				c0-0.3-0.2-0.5-0.5-0.5l-2-0.2c-0.7-0.1-1.5-0.1-2.2-0.1c-4.6,0-8.7,1.8-11.7,5l-0.1-3.8l-0.8,0.1l0-1.6c0-0.2-0.1-0.3-0.2-0.4
				c-0.1-0.1-0.3-0.2-0.4-0.1l-21.5,2.1c-0.3,0-0.5,0.3-0.5,0.6l0,0.2c-2.5-1.4-5.7-2.1-9.3-2.1c-3.7,0-6.8,0.5-9.4,1.6l-1.6,0.6
				c-0.2,0.1-0.4,0.3-0.3,0.5l0.3,10.7l-4.3-11.7l-0.2,0l-0.6-1.7c-0.1-0.2-0.3-0.4-0.5-0.4L71.6,14c-0.3,0-0.5,0.2-0.5,0.4
				l-9.6,30.7c0,0.2,0,0.3,0.1,0.4c0.1,0.1,0.2,0.2,0.4,0.3l1.7,0.3l-0.2,0.6l12.7,2.4l1.3-5.7l1.7-0.1l1.3,4.3
				c0.1,0.3,0.4,0.5,0.7,0.4l0.9-0.2l0.4,1.2l6.5-1.9c0.1,0.1,0.2,0.1,0.4,0.1l1.3,0l0,0.9l11.8,0.1l-0.2-7.9c3-0.4,5.5-1.3,7.5-2.7
				l0.5,10c0,0.2,0.1,0.3,0.2,0.4c0.1,0.1,0.3,0.1,0.4,0.1l1.2-0.2l0.1,1.1l20.8-3.3l-0.1-1.7c0.7,0.6,1.5,1.1,2.4,1.6
				c2.4,1.7,5.6,2.8,9.7,2.8c1.2,0,2.2-0.1,3.2-0.2l2.1-0.3l0-4.8c1.1,1.1,2.4,2,3.7,2.7c2.4,1.7,5.1,2.5,8.1,2.5
				c4,0,7.8-1.7,10.7-4.8l-0.1,3.5c0,0.2,0.1,0.3,0.2,0.4c0.1,0.1,0.3,0.2,0.4,0.2l1.4-0.1l0,1l10.1-0.4c0,0,0,0,0,0
				c0.1,0.1,0.2,0.1,0.4,0.1c0,0,0,0,0.1,0l1.3-0.1l0,1.1l14.5-1.6l-0.5-3.1l1.7,2.7c0.1,0.2,0.3,0.3,0.5,0.3l0.7-0.1l0.6,1
				L211.5,47.5z M159,32.8c0-1.8,1.1-3.6,2.9-3.6c0.3,0.5,0.5,1.2,0.5,2.1c0,0.1,0,3-1.9,3c-0.3,0-0.9,0-1.3-0.3
				C159.1,33.6,159,33.2,159,32.8z M144.9,30.6c0,0.1,0,0.1,0,0.2c0,0.3,0,0.6,0,0.9c-0.4,0.2-1.1,0.3-1.8,0.3c-0.2,0-0.5,0-0.7,0
				C143,31.4,143.8,30.9,144.9,30.6z"/>
			<path class="st1" d="M210.2,46L209,15.6L195.4,14l0.7,4.9l-2.6-3.6l-7.2-0.3l0,0l0,0L184,15l0,0.1l-10.5,0.2l-0.1,7
				c-2.6-4.7-7.4-7.8-12.9-7.8c-5.1,0-9.6,2.8-12.3,7l-0.5-6.1l-2-0.2c-0.7-0.1-1.4-0.1-2.1-0.1c-5.8,0-10.3,2.9-13,7l-0.1-7.8
				l-21.5,2.1l0.1,1.3c-2.4-1.6-5.8-2.5-9.9-2.5c-3.6,0-6.7,0.5-9.2,1.5l-1.6,0.6L88.7,32l-6.4-17.1l-10.8-0.4L62,45.3l12.7,2.4
				l1.3-5.7l3.1-0.2l1.7,5.7l8.2-2.4l0,1.6l11.8,0.1l-0.2-7.9c3.6-0.5,6.5-1.7,8.7-3.7c0.2-0.2,0.4-0.3,0.6-0.5l0.7,12.9l20.8-3.3
				l-0.2-2.4c2.5,3,6.5,5,12.1,5c1.2,0,2.2-0.1,3.2-0.2l2.1-0.3l0-5.8c0.3,0.5,0.7,1,1.1,1.4c2.8,3.1,6.6,4.8,10.7,4.8
				c4.1,0,7.9-1.7,10.8-4.9c0.7-0.8,1.3-1.6,1.8-2.5l-0.2,7.7l11.8-0.5l0,1.1l14.5-1.6l-0.8-5.3l3.9,6L210.2,46z M145.2,32.2
				c-0.5,0.2-1.3,0.4-2,0.4c-1.2,0-2.4-0.4-2.4-0.9c0-1.6,2-2.7,4.8-2.9c-0.1,0.6-0.1,1.3-0.1,2c0,0.4,0,0.9,0.1,1.3L145.2,32.2z
				 M160.5,34.8c-0.7,0-2.8,0-2.8-3.5c0-1.8,1.1-3.6,2.9-3.6c1.2,0,2.4,1.2,2.4,3.5C162.9,32.6,162.4,34.8,160.5,34.8z M100.3,26.7
				c0.1,0,0.2,0,0.2,0c1.2,0,1.7,0.3,1.9,0.4c-0.1,0.3-0.7,1-2.1,1.3L100.3,26.7z"/>
			<g>
				<g>
					<path class="st2" d="M82.2,44.3L80.7,39l-6.8,0.5l-1.1,5.2l-7.8-1.5l8.2-26.4l7.3,0.2l9.3,25.1L82.2,44.3z M76.8,26.1l-2,8.4
						l4.4-0.3L76.8,26.1z"/>
				</g>
				<g>
					<path class="st2" d="M91.2,44l-0.7-25.3c2.5-1,5.4-1.3,8.3-1.3c6.8,0,11.8,2.8,11.8,8.1c0,6.2-4.3,10.5-12.8,10.9l0.2,7.7
						L91.2,44z M97.8,30.7c0.3,0,0.6,0,0.9,0c3.8,0,5.9-2,5.9-3.9c0-1.4-1.3-2.8-4.3-2.8c-0.9,0-1.9,0.1-2.7,0.4L97.8,30.7z"/>
				</g>
				<g>
					<path class="st2" d="M112.6,44.6l-1.3-26.1l16.6-1.6l0.1,8.3L117.6,26l0.1,3.1l8.5-0.8l0.3,4.8l-8.5,0.9l0.1,3.4l9.8-1.2
						l0.5,5.8L112.6,44.6z"/>
				</g>
				<g>
					<path class="st2" d="M145.9,44.1c-1,0.1-2,0.2-2.9,0.2c-9.1,0-13.2-6.1-13.2-12.4c0-7,4.9-14.4,13.5-14.4c0.6,0,1.2,0,1.9,0.1
						l0.7,8.8c-5,0-7.8,2.4-7.8,5.3c0,2.3,2.5,3.3,4.8,3.3c1.1,0,2.2-0.2,3-0.6L145.9,44.1z"/>
				</g>
				<g>
					<path class="st2" d="M147.7,30.6c0-7.4,5.4-13.9,12.5-13.9c7.3,0,12.6,6.2,12.6,13.8c0,7.2-5.5,13.7-12.7,13.7
						C153,44.2,147.7,38,147.7,30.6z M165.1,31.1c0-3.2-1.9-5.9-4.8-5.9c-3.1,0-5.3,2.8-5.3,6c0,3.3,1.6,5.9,5.2,5.9
						C163.4,37,165.1,34.2,165.1,31.1z"/>
				</g>
				<g>
					<path class="st2" d="M175.1,44.4l0.6-26.9l8-0.1L183,44.1L175.1,44.4z"/>
				</g>
				<g>
					<path class="st2" d="M203.2,44.1L194.1,30l2,13.8l-9.4,1.1l-0.6-27.5l5.8,0.2l7.5,10.3L198,16.6l8.5,1l1,26.1L203.2,44.1z"/>
				</g>
			</g>
		</g>
	</g>
	<g>
		<g>
			<circle cx="30.2" cy="30" r="23.1"/>
			<path d="M30.2,6.9C43,6.9,53.3,17.2,53.3,30S43,53.1,30.2,53.1S7.1,42.8,7.1,30S17.5,6.9,30.2,6.9 M30.2,3.4
				C15.5,3.4,3.6,15.3,3.6,30s11.9,26.6,26.6,26.6S56.9,44.7,56.9,30S44.9,3.4,30.2,3.4L30.2,3.4z"/>
		</g>
		<g>
			<circle class="st2" cx="30.1" cy="29.8" r="23.1"/>
			<path class="st1" d="M30.1,6.6c12.8,0,23.1,10.3,23.1,23.1S42.8,52.9,30.1,52.9S7,42.5,7,29.8S17.3,6.6,30.1,6.6 M30.1,4
				C15.9,4,4.3,15.6,4.3,29.8s11.6,25.8,25.8,25.8S55.8,44,55.8,29.8S44.3,4,30.1,4L30.1,4z"/>
		</g>
		<g>
			<path d="M48.8,26.5c-0.3-1.4-2-4.1-3.8-4.5c-0.7-0.2-1,0-1.1,0.1c2.4-4.5,0.1-7.4-0.7-8.5c0.2,1.3-0.3,1.9-0.6,2.2
				c0.2-4.8-3.3-7.9-4.4-8.8c0.8,1.5,0.5,3.2,0.3,3.8c0,0-0.8-4.3-5.8-7.1c-4.9-2.7-10.2-1-12.1-0.3c5.3,0.4,6.5,2.1,7.1,2.9
				c-4.8-2.7-12.9,2-11.4,1.7c1.5-0.3,3.6-0.4,4.7-0.3c-7.3,2.9-6,9.4-5.8,10.7c-0.5-0.4-0.9-1.3-1-2c-2.5,4.8,1.1,8.6,1.1,8.6
				L15,24.8c-0.3,0.2-0.7,0.4-1,0.7c-1.3,1.1-2.1,2.5-2.5,4.1c-0.3,1-0.1,2.1,0.3,3c0.8,1.5,2,2.7,3.3,3.8c0.3,0.2,0.6,0.4,1,0.7
				c-0.1,0.3-0.2,0.6-0.3,0.8c-0.6,1.3-0.9,2.7-0.9,4.1c0,0.9,0.3,2,0.8,2.6c0,0,0,0,0,0c0.1-0.4,0.3-0.7,0.4-1.1c0,0,0,0,0,0
				c0.1,0,0.1,0,0.2,0c0.2,3.1,1.2,5.9,3.1,8.4c0-0.4,0.1-0.9,0.1-1.5c1.4,2,2.9,3.4,5.2,4.2c-0.2-0.3-0.3-0.4-0.3-0.5
				c-0.1-0.2-0.1-0.3-0.2-0.7c1.9,1.1,3.4,2.3,4.6,4.1c0.1-0.7,0.3-1.2,0.4-1.7c0.3,0.3,0.6,0.6,0.8,0.7c0.6,0.3,1.2,0.6,1.8,0.9
				c0.5,0.2,0.9,0,1.4-0.3c0.6-0.5,1.3-1,2-1.5c0.3-0.2,0.6-0.2,1-0.4c-0.1,0.6-0.2,1-0.3,1.5c1.2-0.2,2.1-0.6,2.8-1.5
				c0.7-0.9,1-1.9,1.3-3c0.2,0.5,0.5,1.1,0.7,1.7c2.5-1.4,3.6-3.5,3.3-6.3c0.5,0.6,0.5,1.3,0.6,2c2.3-2.7,2.2-5.7,1.7-8.8
				c0.2,0.3,0.4,0.7,0.7,1.2c0.1-1,0.3-1.8,0.3-2.6c-0.1-1.7-0.3-3.4-2.1-4.4c-0.3-0.2-0.1-0.6,0.2-1.1c1.1-1.1,2-2.4,2.6-3.8
				c0.3-0.6,0.5-1.3,0.6-2C48.9,27.7,48.9,27.1,48.8,26.5z"/>
			<path class="st1" d="M45.1,32.7c-0.1-1.5-0.3-2.9-1.8-3.7c-0.5-0.2-0.6-0.7-0.6-1.2c0-1.2,0.2-2.5,0.5-3.7
				c0.1-0.2,0.1-0.5,0.2-0.7c1.2,0.2,2.3,0.6,3.3,1.3c1,0.7,1.7,1.9,1.2,3.5c-0.2,0.5-0.3,1-0.6,1.5c-0.4,0.7-0.9,1.3-1.4,1.9
				c-0.1,0.2-0.3,0.4-0.3,0.7C45.6,32.7,45.1,33.4,45.1,32.7z"/>
			<path class="st1" d="M15.7,35.6c0-0.5-0.3-0.8-0.6-1c-0.9-0.6-1.6-1.4-2.1-2.2c-0.9-1.4-0.8-2.7,0.2-4c0.7-0.8,1.6-1.4,2.6-1.8
				c0.3-0.1,0.5-0.1,0.6,0.2c0.3,0.8,0.6,1.6,0.9,2.4c0.3,0.9,0.3,1.8-0.1,2.7c-0.5,1.1-0.7,2.2-0.7,3.4
				C16.4,36.1,15.7,36,15.7,35.6z"/>
			<path d="M46.6,28.9c0.2-0.6,0.2-0.8,0.1-1.5c-0.1-0.8-0.7-1.5-1.5-1.6c-1.5-0.3-1.6,0-1.8,1.4c0,0.2,0.1,0.5,0.2,0.6
				c0.7,0.7,1.2,1.4,1.6,2.4c0.5-1,0.3-2,0.5-3C46.7,27.5,46.5,28.2,46.6,28.9z"/>
			<path d="M16.5,29.2c-0.1-0.5-0.1-0.5-0.6-0.5c-1.6,0.2-2.5,1.4-2.1,3c0-0.4,0.1-0.9,0.6-1.1c0.4,0.8,0.4,1.8,1,2.5
				c0.3-0.7,0.4-1.3,0.8-1.8C16.6,30.6,16.7,29.9,16.5,29.2z"/>
			<path class="st3" d="M16.6,21.3c0,0,2.1-6.2,11.6-3.2c0.4,0.2,0.8,0,1.1-0.2c0.3-0.2,7.5-4.7,12.2,0.8c0.2-4-0.5-5.2-1.5-7.1
				c-0.2,0.8,0.1,3.3-1.1,4.1c-0.5-1.5-2.6-9.2-10.8-11.3c0.3,0.7,1.2,2,1.5,3.7c-1.3,0-9.2-0.5-12.4,6.5c0,0,3.4-2.8,6.6-2.3
				C22.5,12.7,16.7,14,16.6,21.3z"/>
			<g>
				<path class="st1" d="M43.3,26.5c-0.5-5.2-5.5-9-11.1-8.4c-1.2,0.1-2.2,1.4-3.2,1.8c-1.1-0.2-2.2-1.3-3.4-1.2
					c-4.4,0.4-7.9,3.4-9,7.2c-0.3,1-0.4,2.2-0.3,3.3c0.4,3.5,2.8,6.4,6,7.7c-1.2,1.7-1.8,3.9-1.6,6.1c0.5,5.2,5.5,9,11.1,8.4
					s9.8-5.2,9.3-10.4c-0.2-2.1-1.2-4-2.6-5.5C41.7,33.6,43.6,30.2,43.3,26.5z"/>
				<path class="st1" d="M20,18.9c2.7-1.3,7.6-0.8,8.9,0.8c0.4-1.4,6.4-4.6,10.9-1.6s3.5,8.5,3.5,8.5l-26.9,3.3
					C16.4,29.8,13.7,21.9,20,18.9z"/>
				<g>
					<path d="M32,21.5c0,0,1.4-1.8,2.7-2.6c0.5-0.3,1.5-0.9,2.4-0.3c0.5,0.3,1.1,0.8,1.6,1.6c0.4,0.6-1.7-1.4-2.8-0.8
						c-1.3,0.7-2.1,2-2.1,2L32,21.5z"/>
					<path class="st3" d="M43.5,22.8c-0.4-2-2.3-2.4-3.8-2.2c-3,0.3-10.4,1-10.6,1l0,0c0,0,0,0,0,0c0,0,0,0,0,0l0,0
						c-0.1,0-7.6,0.8-10.6,1.1c-1.6,0.2-3.3,0.9-3.3,2.9c0,2.2-0.2,5.1,2.5,7.1c3,2.3,6.1,0.9,6.1,0.9c5.5-1.6,4.9-8.4,4.9-8.4
						l0.7-0.1l0,0l0.7-0.1c0,0,0.7,6.8,6.4,7.3c0,0,3.3,0.8,5.8-2.1C44.7,27.7,43.9,25,43.5,22.8z"/>
					<path class="st2" d="M20.3,23.8c0.1,0,2.7-0.3,3.6-0.4c1.2-0.1,4-0.7,3.7,2.9c-0.2,2.1-0.9,4.8-4.3,6.1c-2.6,1-5.8-0.5-6.1-2.8
						C16.6,26.5,17.2,24.5,20.3,23.8z"/>
					<path class="st2" d="M38,22.1c-0.1,0-2.7,0.2-3.6,0.3c-1.2,0.1-4.1,0.1-3,3.6c0.6,2.1,1.9,4.6,5.4,5.1c2.7,0.4,5.6-1.6,5.4-3.9
						C42.1,24,41.1,22.1,38,22.1z"/>
					<g>
						<path class="st1" d="M17.7,29.5l4.4-5.4c-0.8,0.1-1.6,0.2-1.6,0.2C17.9,24.9,17.3,26.7,17.7,29.5
							C17.7,29.5,17.7,29.5,17.7,29.5z"/>
						<path class="st1" d="M22,32.2c0.4,0,0.7-0.1,1.1-0.2c3-1.1,3.6-3.5,3.8-5.3c0-0.1,0-0.3,0-0.4L22,32.2z"/>
						<path class="st1" d="M26.3,24.3c-0.5-0.4-1.2-0.5-1.9-0.4L18.6,31c0.4,0.4,0.9,0.7,1.5,0.9L26.3,24.3z"/>
					</g>
					<g>
						<path class="st1" d="M40.5,23.5c-0.4-0.4-0.9-0.7-1.6-0.8L33.8,29c0.4,0.4,0.8,0.7,1.4,1L40.5,23.5z"/>
						<path class="st1" d="M32.8,27.6l4-4.9c-0.7,0.1-1.6,0.1-2.1,0.2c-1.1,0.1-3.6,0.1-2.6,3.2C32.3,26.6,32.5,27.1,32.8,27.6z"/>
						<path class="st1" d="M36.8,30.5C36.9,30.5,36.9,30.5,36.8,30.5c2.4,0.4,4.9-1.4,4.8-3.4c0-0.8-0.1-1.5-0.3-2.1L36.8,30.5z"/>
					</g>
				</g>
				<path d="M30.1,38.4L30,35.8c0,0-1.3-0.9-1.8-1.3c-1.1-0.6-2.1,0.7-0.9,1.6c1,0.7,1.8,0.9,2.1,0.5C29.7,36.4,30.2,38,30.1,38.4z"
					/>
				<path d="M25.5,35.2c0,0-0.1-0.7,0.7-1.2c0.7-0.5,1.9-0.3,1.9-0.3s-0.9-1.4-2.2-0.6C24.5,34,25.5,35.2,25.5,35.2z"/>
				<path d="M31.6,38.1l-0.4-2.6c0,0,1.1-1.2,1.5-1.6c0.9-0.8,2.2,0.3,1.2,1.4c-0.8,0.9-1.6,1.2-2,0.9C31.6,36,31.5,37.7,31.6,38.1z
					"/>
				<path d="M35.6,34.1c0,0-0.1-0.7-0.9-1.1c-0.8-0.4-1.9,0.1-1.9,0.1s0.6-1.6,2.1-1C36.3,32.6,35.6,34.1,35.6,34.1z"/>
			</g>
			<g>
				<path d="M22.4,44.4c0,0,0.9-0.7,1.1-1.3C23.6,43.6,23.3,44.5,22.4,44.4z"/>
				<path d="M23.2,43.9c0.6,0.7,1.7,1.2,7.3,0.1c3.5-0.5,3.5,0.2,5.7-0.2c2.1-0.4,3.1-2.2,3.1-2.2s-1.1,2.7-3.5,2.8
					c-2.4,0.2-2.9-0.3-5.3,0c-2.3,0.3-6.8,1-7.5-0.2L23.2,43.9z"/>
				<path d="M25.4,45.6c0,0,1.2,0.9,3.3,0.8s4.3-0.5,5.1-0.6c0.8,0,3.3-1.2,3.3-1.2c-1.1,1-3.1,1.5-4.5,1.7l0.6,0.2l-1.7,0.4l1,0.1
					l-1.9,0.7l0.5-0.3l-1.7-0.3l2.1-0.6c0,0-4.2,0.5-6-0.6C25.1,45.8,25.4,45.6,25.4,45.6z"/>
			</g>
		</g>
	</g>
</g>
</svg>
